<svg xmlns="http://www.w3.org/2000/svg" width="24" height="24" fill="white" class="bi bi-github" viewBox="0 0 16 16">
  <path d="M8 .297C4.477.297 1.297 3.477 1.297 7c0 2.993 1.922 5.546 4.598 6.447.336.062.456-.146.456-.324 0-.16-.006-.731-.01-1.33-1.869.405-2.26-.905-2.26-.905-.305-.778-.744-.983-.744-.983-.608-.416.047-.408.047-.408.673.047 1.025.692 1.025.692.597 1.024 1.565.724 1.946.554.062-.434.236-.724.428-.89-1.5-.17-3.06-.75-3.06-3.336 0-.737.263-1.34.693-1.813-.068-.17-.3-.858.065-1.788 0 0 .568-.182 1.863.692.54-.15 1.12-.226 1.694-.23.574.004 1.155.08 1.694.23 1.295-.874 1.863-.692 1.863-.692.366.93.134 1.618.066 1.788.41.473.693 1.076.693 1.813 0 2.592-1.563 3.166-3.057 3.334.24.208.457.62.457 1.248 0 .902-.008 1.626-.008 1.846 0 .176.12.381.462.317 2.67-.565 4.576-2.646 4.576-5.011 0-2.915-2.512-5.277-5.592-5.277z"/>
</svg>
